<svg width="24" height="25" viewBox="0 0 24 25" fill="none" xmlns="http://www.w3.org/2000/svg">
<mask id="mask0_3555_10411" style="mask-type:alpha" maskUnits="userSpaceOnUse" x="0" y="0" width="24" height="25">
<rect y="0.811279" width="24" height="24" fill="#D9D9D9"/>
</mask>
<g mask="url(#mask0_3555_10411)">
<path d="M5 21.8113C4.45 21.8113 3.97917 21.6155 3.5875 21.2238C3.19583 20.8321 3 20.3613 3 19.8113V6.6363L1.4 5.0113C1.21667 4.82797 1.12083 4.5988 1.1125 4.3238C1.10417 4.0488 1.2 3.8113 1.4 3.6113C1.58333 3.42797 1.81667 3.3363 2.1 3.3363C2.38333 3.3363 2.61667 3.42797 2.8 3.6113L21.2 22.0113C21.4 22.2113 21.4958 22.4446 21.4875 22.7113C21.4792 22.978 21.375 23.2113 21.175 23.4113C20.975 23.5946 20.7417 23.6905 20.475 23.6988C20.2083 23.7071 19.975 23.6113 19.775 23.4113L18.175 21.8113H5ZM5 19.8113H16.175L14.175 17.8113H7C6.8 17.8113 6.65 17.7196 6.55 17.5363C6.45 17.353 6.46667 17.178 6.6 17.0113L8.6 14.3613C8.7 14.228 8.83333 14.1613 9 14.1613C9.16667 14.1613 9.3 14.228 9.4 14.3613L11 16.5363L11.85 15.4863L5 8.6363V19.8113ZM21 18.9863L19 16.9863V5.8113H7.825L5.825 3.8113H19C19.55 3.8113 20.0208 4.00714 20.4125 4.3988C20.8042 4.79047 21 5.2613 21 5.8113V18.9863Z" fill="#1C1B1F"/>
</g>
</svg>
